<svg xmlns="http://www.w3.org/2000/svg" version="1.1" xmlns:xlink="http://www.w3.org/1999/xlink" xmlns:svgjs="http://svgjs.dev/svgjs" viewBox="0 0 10.39288431713797 9.206424363517652"><g transform="matrix(0.8493246390312064,0,0,0.8493246390312064,2.567599928676984,3.601689230948101)"><g transform="matrix(1,0,0,1,0,0)"><g clip-path="url(#SvgjsClipPath57973)"><path d=" M -1.2845894531250002 1.17919921875 L 0.9015892305644364 -2.6073751013148416 L 5.2740349513441105 -2.6073751013148416 L 7.460074793975145 1.17919921875 L 5.2740349513441105 4.965773538814842 L 0.9015892305644364 4.965773538814842 L -1.2845894531250002 1.17919921875 Z" fill="#002540" transform="matrix(1,0,0,1,0,0)" fill-rule="nonzero"></path></g></g><g transform="matrix(1,0,0,1,0,0)"><path d=" M 1.8046875 1.46630859375 Q 1.7197265625 1.705078125 1.634765625 1.90576171875 Q 1.5498046875 2.1064453125 1.458984375 2.27490234375 Q 1.60107421875 2.26318359375 1.714599609375 2.24267578125 Q 1.828125 2.22216796875 1.92041015625 2.187744140625 Q 2.0126953125 2.1533203125 2.08740234375 2.103515625 Q 2.162109375 2.0537109375 2.227294921875 1.98486328125 Q 2.29248046875 1.916015625 2.353271484375 1.82666015625 Q 2.4140625 1.7373046875 2.478515625 1.62451171875 L 2.5546875 1.48974609375 L 2.59423828125 1.517578125 L 2.51806640625 1.65234375 Q 2.44482421875 1.78125 2.373779296875 1.878662109375 Q 2.302734375 1.97607421875 2.22802734375 2.047119140625 Q 2.1533203125 2.1181640625 2.070556640625 2.16650390625 Q 1.98779296875 2.21484375 1.89111328125 2.247802734375 Q 1.79443359375 2.28076171875 1.679443359375 2.300537109375 Q 1.564453125 2.3203125 1.4267578125 2.3349609375 Q 1.31396484375 2.53564453125 1.1953125 2.684326171875 Q 1.07666015625 2.8330078125 0.945556640625 2.931884765625 Q 0.814453125 3.03076171875 0.6708984375 3.079833984375 Q 0.52734375 3.12890625 0.3662109375 3.12890625 Q 0.1904296875 3.12890625 0.095947265625 3.044677734375 Q 0.00146484375 2.96044921875 0.00146484375 2.8037109375 Q 0.00146484375 2.6982421875 0.069580078125 2.616943359375 Q 0.1376953125 2.53564453125 0.284912109375 2.47412109375 Q 0.43212890625 2.41259765625 0.664306640625 2.369384765625 Q 0.896484375 2.326171875 1.22607421875 2.29541015625 Q 1.2861328125 2.16943359375 1.346923828125 2.02001953125 Q 1.40771484375 1.87060546875 1.47802734375 1.6875 Q 1.576171875 1.42822265625 1.64794921875 1.24365234375 Q 1.7197265625 1.05908203125 1.774658203125 0.92578125 Q 1.82958984375 0.79248046875 1.874267578125 0.69873046875 Q 1.9189453125 0.60498046875 1.962890625 0.52734375 Q 2.033203125 0.40576171875 2.11669921875 0.306884765625 Q 2.2001953125 0.2080078125 2.31005859375 0.134765625 Q 2.21337890625 0.1640625 2.113037109375 0.18017578125 Q 2.0126953125 0.1962890625 1.93359375 0.1962890625 Q 1.85595703125 0.1962890625 1.779052734375 0.181640625 Q 1.7021484375 0.1669921875 1.631103515625 0.1494140625 Q 1.56005859375 0.1318359375 1.49853515625 0.1171875 Q 1.43701171875 0.1025390625 1.3916015625 0.1025390625 Q 1.3359375 0.1025390625 1.285400390625 0.126708984375 Q 1.23486328125 0.15087890625 1.19677734375 0.195556640625 Q 1.15869140625 0.240234375 1.13671875 0.302490234375 Q 1.11474609375 0.36474609375 1.11474609375 0.439453125 Q 1.11474609375 0.52880859375 1.14404296875 0.59033203125 L 1.0927734375 0.61962890625 Q 1.0751953125 0.5859375 1.064208984375 0.5419921875 Q 1.05322265625 0.498046875 1.05322265625 0.4453125 Q 1.05322265625 0.34130859375 1.09130859375 0.258544921875 Q 1.12939453125 0.17578125 1.19677734375 0.11865234375 Q 1.26416015625 0.0615234375 1.3564453125 0.03076171875 Q 1.44873046875 0 1.55712890625 0 Q 1.60986328125 0 1.648681640625 0.006591796875 Q 1.6875 0.01318359375 1.72265625 0.0234375 Q 1.7578125 0.03369140625 1.795166015625 0.044677734375 Q 1.83251953125 0.0556640625 1.88232421875 0.06591796875 Q 1.93212890625 0.076171875 1.99951171875 0.082763671875 Q 2.06689453125 0.08935546875 2.16357421875 0.08935546875 Q 2.23828125 0.08935546875 2.2939453125 0.084228515625 Q 2.349609375 0.0791015625 2.3994140625 0.068115234375 Q 2.44921875 0.05712890625 2.498291015625 0.041015625 Q 2.54736328125 0.02490234375 2.60888671875 0.00146484375 L 2.60888671875 0.02783203125 Q 2.56640625 0.041015625 2.524658203125 0.060791015625 Q 2.48291015625 0.08056640625 2.441162109375 0.10986328125 Q 2.3994140625 0.13916015625 2.359130859375 0.182373046875 Q 2.31884765625 0.2255859375 2.279296875 0.2841796875 Q 2.2353515625 0.35009765625 2.192138671875 0.441650390625 Q 2.14892578125 0.533203125 2.095458984375 0.670166015625 Q 2.0419921875 0.80712890625 1.9716796875 1.00048828125 Q 1.9013671875 1.19384765625 1.8046875 1.46630859375 M 0.375 3.05712890625 Q 0.50390625 3.05712890625 0.6123046875 3.024169921875 Q 0.720703125 2.9912109375 0.8173828125 2.91064453125 Q 0.9140625 2.830078125 1.00634765625 2.6953125 Q 1.0986328125 2.560546875 1.1982421875 2.35546875 Q 1.04736328125 2.36865234375 0.9052734375 2.386962890625 Q 0.76318359375 2.4052734375 0.638671875 2.430908203125 Q 0.51416015625 2.45654296875 0.41015625 2.490234375 Q 0.30615234375 2.52392578125 0.2314453125 2.5693359375 Q 0.15673828125 2.61474609375 0.11572265625 2.672607421875 Q 0.07470703125 2.73046875 0.07470703125 2.80224609375 Q 0.07470703125 2.93115234375 0.154541015625 2.994140625 Q 0.234375 3.05712890625 0.375 3.05712890625 M 5.51953125 0.74853515625 Q 5.54443359375 0.7236328125 5.570068359375 0.676025390625 Q 5.595703125 0.62841796875 5.616943359375 0.569091796875 Q 5.63818359375 0.509765625 5.6513671875 0.444580078125 Q 5.66455078125 0.37939453125 5.66455078125 0.3193359375 Q 5.66455078125 0.2666015625 5.64990234375 0.218994140625 Q 5.63525390625 0.17138671875 5.60009765625 0.135498046875 Q 5.56494140625 0.099609375 5.507080078125 0.078369140625 Q 5.44921875 0.05712890625 5.3642578125 0.05712890625 Q 5.2060546875 0.05712890625 5.05224609375 0.120849609375 Q 4.8984375 0.1845703125 4.761474609375 0.301025390625 Q 4.62451171875 0.41748046875 4.51025390625 0.5830078125 Q 4.39599609375 0.74853515625 4.318359375 0.9521484375 Q 4.259765625 1.1044921875 4.228271484375 1.257568359375 Q 4.19677734375 1.41064453125 4.19677734375 1.546875 Q 4.19677734375 1.751953125 4.270751953125 1.847900390625 Q 4.3447265625 1.94384765625 4.5 1.94384765625 Q 4.7080078125 1.94384765625 4.913818359375 1.765869140625 Q 5.11962890625 1.587890625 5.33056640625 1.21728515625 L 5.34228515625 1.1982421875 L 5.53564453125 1.1982421875 L 5.4404296875 1.46630859375 Q 5.35693359375 1.705078125 5.2705078125 1.90576171875 Q 5.18408203125 2.1064453125 5.09326171875 2.27490234375 Q 5.22216796875 2.26171875 5.326904296875 2.244140625 Q 5.431640625 2.2265625 5.52099609375 2.197998046875 Q 5.6103515625 2.16943359375 5.6865234375 2.12548828125 Q 5.7626953125 2.08154296875 5.833740234375 2.013427734375 Q 5.90478515625 1.9453125 5.972900390625 1.85009765625 Q 6.041015625 1.7548828125 6.11572265625 1.62451171875 L 6.1904296875 1.48974609375 L 6.22998046875 1.517578125 L 6.15380859375 1.65234375 Q 6.08056640625 1.78271484375 6.01171875 1.87939453125 Q 5.94287109375 1.97607421875 5.870361328125 2.047119140625 Q 5.7978515625 2.1181640625 5.718017578125 2.16650390625 Q 5.63818359375 2.21484375 5.540771484375 2.2470703125 Q 5.443359375 2.279296875 5.325439453125 2.2998046875 Q 5.20751953125 2.3203125 5.0595703125 2.3349609375 Q 4.83544921875 2.73779296875 4.582763671875 2.933349609375 Q 4.330078125 3.12890625 4.03271484375 3.12890625 Q 3.8320312499999996 3.12890625 3.7346191406249996 3.046875 Q 3.6372070312499996 2.96484375 3.6372070312499996 2.8271484375 Q 3.6372070312499996 2.72900390625 3.6870117187499996 2.655029296875 Q 3.7368164062499996 2.5810546875 3.8247070312499996 2.52685546875 Q 3.9125976562499996 2.47265625 4.030517578125 2.435302734375 Q 4.1484375 2.39794921875 4.283935546875 2.372314453125 Q 4.41943359375 2.3466796875 4.566650390625 2.3291015625 Q 4.7138671875 2.3115234375 4.85888671875 2.296875 Q 4.92041015625 2.16943359375 4.98193359375 2.019287109375 Q 5.04345703125 1.869140625 5.11376953125 1.6875 L 5.15185546875 1.587890625 Q 5.09326171875 1.66552734375 5.020751953125 1.742431640625 Q 4.9482421875 1.8193359375 4.862548828125 1.880126953125 Q 4.77685546875 1.94091796875 4.6787109375 1.978271484375 Q 4.58056640625 2.015625 4.470703125 2.015625 Q 4.359375 2.015625 4.267822265625 1.973876953125 Q 4.17626953125 1.93212890625 4.11181640625 1.853759765625 Q 4.04736328125 1.775390625 4.011474609375 1.664794921875 Q 3.9755859374999996 1.55419921875 3.9755859374999996 1.41796875 Q 3.9755859374999996 1.31982421875 3.9946289062499996 1.20849609375 Q 4.013671875 1.09716796875 4.0517578125 0.9814453125 Q 4.12646484375 0.76318359375 4.256103515625 0.5830078125 Q 4.3857421875 0.40283203125 4.552734375 0.273193359375 Q 4.7197265625 0.1435546875 4.91455078125 0.072509765625 Q 5.109375 0.00146484375 5.314453125 0.00146484375 Q 5.4345703125 0.00146484375 5.518798828125 0.027099609375 Q 5.60302734375 0.052734375 5.65576171875 0.097412109375 Q 5.70849609375 0.14208984375 5.732666015625 0.201416015625 Q 5.7568359375 0.2607421875 5.7568359375 0.328125 Q 5.7568359375 0.38232421875 5.742919921875 0.438720703125 Q 5.72900390625 0.4951171875 5.704833984375 0.551513671875 Q 5.6806640625 0.60791015625 5.6455078125 0.662109375 Q 5.6103515625 0.71630859375 5.5693359375 0.7646484375 L 5.51953125 0.74853515625 M 4.03857421875 3.05712890625 Q 4.15869140625 3.05712890625 4.2626953125 3.0205078125 Q 4.36669921875 2.98388671875 4.461181640625 2.900390625 Q 4.5556640625 2.81689453125 4.646484375 2.682861328125 Q 4.7373046875 2.548828125 4.83251953125 2.35546875 Q 4.599609375 2.3759765625 4.395263671875 2.404541015625 Q 4.19091796875 2.43310546875 4.03857421875 2.484375 Q 3.8862304687499996 2.53564453125 3.7983398437499996 2.6162109375 Q 3.7104492187499996 2.69677734375 3.7104492187499996 2.81982421875 Q 3.7104492187499996 2.935546875 3.7924804687499996 2.996337890625 Q 3.8745117187499996 3.05712890625 4.03857421875 3.05712890625" fill="#fffef5" fill-rule="nonzero"></path></g><g transform="matrix(1,0,0,1,0,0)"></g></g><defs><clipPath id="SvgjsClipPath57973"><path d=" M -1.2845894531250002 -2.6073751013148416 h 8.75960859375 v 7.573148640129683 h -8.75960859375 Z"></path></clipPath></defs></svg>