<?xml version="1.0" encoding="UTF-8"?>
<svg xmlns="http://www.w3.org/2000/svg" viewBox="0 0 600 600" width="600" height="600">
  <!-- HTML5 Icon -->
  <symbol id="html5" viewBox="0 0 100 100">
    <path fill="#E44D26" d="M19.1,0h4.1v4.1h3.7V0h4.1v12.3h-4.1V8.2h-3.7v4.1h-4.1V0z"/>
    <path fill="#E44D26" d="M39.4,4.1h-3.6V0h11.3v4.1h-3.6v8.2h-4.1V4.1z"/>
    <path fill="#E44D26" d="M48.8,0h4.3l2.6,4.3L58.4,0h4.3v12.3h-4.1V6.2l-2.8,4.3L53,6.2v6.1h-4.1V0z"/>
    <path fill="#E44D26" d="M65.2,0h4.1v8.2h5.8v4.1H65.2V0z"/>
    <path fill="#E44D26" d="M19.7,100l-6.2-70h73.1l-6.2,70L50,108.3L19.7,100z"/>
    <path fill="#F16529" d="M50,103.3l24.4-6.8l5.8-64.4H50V103.3z"/>
    <path fill="white" d="M50,56.2h12.3l0.8,9.3H50v9.1h22.8l-2.2,24.1L50,103.3v10.3l33.9-9.4l0.2-2.7l3.9-43.3l0.4-4.5H50V56.2z"/>
    <path fill="#EBEBEB" d="M50,75l-0.1,0.4h-11l-0.8-9.3H50v-9.1H37.1l0.2,2.3l2.1,24H50V75z M50,103l-0.1,0.4l-11-3l-0.7-7.9h-9.9 l1.4,15.5l20.3,5.6V103z"/>
  </symbol>
  
  <!-- JavaScript Icon -->
  <symbol id="javascript" viewBox="0 0 100 100">
    <path fill="#F7DF1E" d="M0,0h100v100H0V0z"/>
    <path d="M65.8,78.5c1.8,3,4.2,5.1,8.4,5.1c3.5,0,5.8-1.8,5.8-4.2c0-2.9-2.3-3.9-6.2-5.6l-2.1-0.9c-6.1-2.6-10.2-5.9-10.2-12.8 c0-6.4,4.9-11.3,12.5-11.3c5.4,0,9.3,1.9,12.1,6.8l-6.6,4.2c-1.5-2.6-3-3.7-5.5-3.7c-2.5,0-4.1,1.6-4.1,3.7c0,2.6,1.6,3.6,5.3,5.2 l2.1,0.9c7.2,3.1,11.3,6.2,11.3,13.3c0,7.7-6,11.9-14.1,11.9c-7.9,0-13-3.8-15.5-8.7L65.8,78.5z M35.6,79.1 c1.3,2.4,2.5,4.4,5.4,4.4c2.8,0,4.5-1.1,4.5-5.3V49.8h8.3v28.5c0,8.7-5.1,12.6-12.5,12.6c-6.7,0-10.6-3.5-12.6-7.6L35.6,79.1z"/>
  </symbol>
  
  <!-- Java Icon -->
  <symbol id="java" viewBox="0 0 100 100">
    <path fill="#5382A1" d="M40.6,68.9c0,0-2.1,1.2,1.5,1.6c4.4,0.5,6.6,0.4,11.4-0.5c0,0,1.3,0.8,3,1.5C44.9,77.9,29.9,71.2,40.6,68.9z"/>
    <path fill="#5382A1" d="M38.9,61.3c0,0-2.3,1.7,1.3,2.1c4.6,0.5,8.3,0.5,14.6-0.7c0,0,0.9,0.9,2.3,1.4C43,69.9,27,64.8,38.9,61.3z"/>
    <path fill="#E76F00" d="M53.2,46.3c2.6,3-0.7,5.8-0.7,5.8s6.7-3.5,3.6-7.8c-2.9-4-5.1-6,6.9-12.8C63,31.4,40.1,38.6,53.2,46.3z"/>
    <path fill="#5382A1" d="M71.8,77.5c0,0,1.6,1.3-1.7,2.3c-6.2,1.9-25.8,2.4-31.3,0.1c-2-0.8,1.7-2,2.9-2.2c1.2-0.2,1.9-0.2,1.9-0.2c-2.2-1.5-14,3-6,4.4C55.8,85.7,77.4,80.5,71.8,77.5z"/>
    <path fill="#5382A1" d="M41.8,53.3c0,0-9.9,2.4-3.5,3.2c2.7,0.4,8.1,0.3,13.1-0.1c4.1-0.4,8.2-1.3,8.2-1.3s-1.4,0.6-2.5,1.3c-10,2.6-29.4,1.4-23.8-1.3C37.6,53.2,41.8,53.3,41.8,53.3z"/>
    <path fill="#5382A1" d="M66.3,69.5c10.2-5.3,5.5-10.4,2.2-9.7c-0.8,0.2-1.2,0.3-1.2,0.3s0.3-0.5,0.9-0.7c6.9-2.4,12.2,6.7-2.1,10.3C66.1,69.7,66.2,69.6,66.3,69.5z"/>
    <path fill="#E76F00" d="M58.2,0c0,0,5.7,5.7-5.3,14.4c-8.9,7-2,11,0,15.5c-5.1-4.6-8.9-8.7-6.4-12.5C50.1,12.1,61,9.4,58.2,0z"/>
    <path fill="#5382A1" d="M42.3,92.7c9.8,0.6,24.9-0.3,25.3-4.8c0,0-0.7,1.7-8.1,3c-8.4,1.5-18.7,1.3-24.8,0.4C34.6,91.2,35.6,92.2,42.3,92.7z"/>
  </symbol>
  
  <!-- C# Icon -->
  <symbol id="csharp" viewBox="0 0 100 100">
    <path fill="#68217A" d="M50,5.9L12.5,28v44L50,94.1L87.5,72V28L50,5.9z"/>
    <path fill="white" d="M50,22.8v13.8l-11.9,6.9l-11.9-6.9V22.8l11.9-6.9L50,22.8z"/>
    <path fill="white" d="M50,50v13.8L38.1,70.7l-11.9-6.9V50l11.9-6.9L50,50z"/>
    <path fill="white" d="M73.8,50v13.8l-11.9,6.9L50,63.8V50l11.9-6.9L73.8,50z"/>
    <path fill="white" d="M73.8,22.8v13.8l-11.9,6.9L50,36.6V22.8l11.9-6.9L73.8,22.8z"/>
    <path fill="white" d="M85.2,38.5h-3.8l-2.1,9.3l-6.2-9.3h-3.9l-2.2,9.3l-6.2-9.3h-3.9l8.4,13.1L57,63.2h3.9L65,44.4l9.1,18.8h4L85.2,38.5z"/>
  </symbol>
  
  <!-- C++ Icon -->
  <symbol id="cpp" viewBox="0 0 100 100">
    <path fill="#00599C" d="M91.8,34.9L54.3,13.5c-2.5-1.4-5.6-1.4-8.1,0L8.7,34.9c-2.5,1.4-4,4.1-4,7v42.8c0,2.9,1.5,5.5,4,7l37.5,21.4c2.5,1.4,5.6,1.4,8.1,0l37.5-21.4c2.5-1.4,4-4.1,4-7v-42.8C95.8,39,94.3,36.3,91.8,34.9z"/>
    <path fill="white" d="M50.1,91.3c-13.5,0-24.5-11-24.5-24.5c0-13.5,11-24.5,24.5-24.5c8.7,0,16.7,4.6,21.1,11.9L60.3,60c-2.3-3.7-6.3-6-10.8-6c-6.9,0-12.5,5.6-12.5,12.5c0,6.9,5.6,12.5,12.5,12.5c4.6,0,8.7-2.5,10.9-6.2l10.9,6.3C66.8,86.8,58.8,91.3,50.1,91.3z"/>
    <path fill="white" d="M77.7,55.5h-3.8v-3.8h-3.8v3.8h-3.8v3.8h3.8v3.8h3.8v-3.8h3.8V55.5z"/>
    <path fill="white" d="M89.5,55.5h-3.8v-3.8h-3.8v3.8h-3.8v3.8h3.8v3.8h3.8v-3.8h3.8V55.5z"/>
  </symbol>
  
  <!-- React Icon -->
  <symbol id="react" viewBox="0 0 100 100">
    <path fill="#61DAFB" d="M50,42.6c4.1,0,7.4,3.3,7.4,7.4c0,4.1-3.3,7.4-7.4,7.4c-4.1,0-7.4-3.3-7.4-7.4C42.6,45.9,45.9,42.6,50,42.6z"/>
    <path fill="#61DAFB" d="M35.8,32.1c6.6-5.8,15.3-9,24.2-9c8.9,0,17.6,3.2,24.2,9c1.5,1.3,2.9,2.8,4.1,4.4c1.2,1.6,2.3,3.3,3.2,5.1 c0.9,1.8,1.7,3.6,2.3,5.5c0.3,1,0.6,1.9,0.8,2.9c0.5,2,0.8,4,0.8,6c0,2-0.3,4-0.8,6c-0.5,1.9-1.1,3.8-2,5.7c-0.8,1.9-1.9,3.7-3.1,5.5 c-1.2,1.7-2.5,3.2-4,4.6c-6.6,5.8-15.3,9-24.2,9c-8.9,0-17.6-3.2-24.2-9c-1.5-1.3-2.9-2.8-4.1-4.4c-1.2-1.6-2.3-3.3-3.2-5.1 c-0.9-1.8-1.7-3.6-2.3-5.5c-0.3-1-0.6-1.9-0.8-2.9c-0.5-2-0.8-4-0.8-6c0-2,0.3-4,0.8-6c0.5-1.9,1.1-3.8,2-5.7c0.8-1.9,1.9-3.7,3.1-5.5 C33,34.9,34.3,33.4,35.8,32.1 M84.2,36.5c-1.1-1.5-2.3-2.8-3.6-4.1c-5.9-5.2-13.6-8-21.6-8c-8,0-15.7,2.9-21.6,8 c-1.3,1.2-2.5,2.5-3.6,4c-1.1,1.5-2,3.1-2.8,4.8c-0.8,1.7-1.5,3.4-2,5.2c-0.2,0.9-0.5,1.7-0.7,2.6c-0.5,1.8-0.7,3.6-0.7,5.4 c0,1.8,0.2,3.6,0.7,5.4c0.4,1.7,1,3.4,1.7,5.1c0.7,1.7,1.6,3.3,2.7,4.8c1.1,1.6,2.3,3,3.7,4.3c5.9,5.2,13.6,8,21.6,8 c8,0,15.7-2.9,21.6-8c1.3-1.2,2.5-2.5,3.6-4c1.1-1.5,2-3.1,2.8-4.8c0.8-1.7,1.5-3.4,2-5.2c0.2-0.9,0.5-1.7,0.7-2.6 c0.5-1.8,0.7-3.6,0.7-5.4c0-1.8-0.2-3.6-0.7-5.4c-0.4-1.7-1-3.4-1.7-5.1C86.2,39.6,85.3,38,84.2,36.5z"/>
    <path fill="#61DAFB" d="M50,21.6c9.6,0,18.5,2.3,25.2,6.1c6.7,3.8,10.4,8.8,10.4,14.3c0,5.5-3.7,10.5-10.4,14.3 c-6.7,3.8-15.6,6.1-25.2,6.1c-9.6,0-18.5-2.3-25.2-6.1c-6.7-3.8-10.4-8.8-10.4-14.3c0-5.5,3.7-10.5,10.4-14.3 C31.5,23.9,40.4,21.6,50,21.6 M50,20.1c-19.9,0-36,9.8-36,22c0,12.2,16.1,22,36,22c19.9,0,36-9.8,36-22C86,29.9,69.9,20.1,50,20.1 L50,20.1z"/>
    <path fill="#61DAFB" d="M74.6,77.6c-4.8,8.2-10.8,14.4-17,17.3c-6.2,2.9-11.9,2-15.9-2.2c-4-4.2-5.1-10.8-3.1-18.4c2-7.6,6.9-16.1,13.7-24.5 c6.8-8.3,14.7-15.2,22.2-19.2c3.7-2,7.3-3.2,10.4-3.6c3.1-0.4,5.9-0.1,8.2,1c2.3,1.1,4.1,2.9,5.4,5.4c1.2,2.5,1.9,5.6,1.9,9.1 c0,3.5-0.6,7.4-1.9,11.6C96.3,58.3,93.6,63,90.1,68c-3.5,5-7.7,10.3-12.6,15.2c-0.9,0.9-1.8,1.8-2.8,2.6 M42,92.8 c2.8,3,6.9,4.1,11.6,3.3c4.8-0.8,9.9-3.3,14.9-7.4c4.9-4.1,9.7-9.8,13.9-16.1c4.2-6.3,7.5-13.2,9.5-19.3c1-3,1.7-5.9,2-8.5 c0.3-2.6,0.3-4.9-0.2-6.9c-0.5-2-1.3-3.6-2.6-4.8c-1.3-1.2-3-1.9-5.1-2.2c-2.1-0.3-4.6,0-7.3,0.9c-5.5,1.8-11.7,5.5-17.8,10.8 C55,47.7,49,54.6,44.2,62c-4.8,7.4-8.3,15-9.9,21.5C37.7,86.1,39.2,89.8,42,92.8z"/>
    <path fill="#61DAFB" d="M25.5,77.6c-5-4.5-8.3-9.6-9.8-14.5c-1.5-4.9-0.9-9.5,1.6-13.1c2.5-3.6,6.9-6,12.7-6.9c5.8-0.9,12.8-0.3,20.1,1.9 c7.3,2.2,14.8,5.8,21.8,10.5c6.9,4.7,13,10.3,17.9,16.1c2.5,2.9,4.5,5.9,6.1,8.9c1.6,3,2.7,6,3.1,8.9c0.5,2.9,0.4,5.7-0.4,8.2 c-0.8,2.5-2.2,4.7-4.3,6.5c-2.1,1.8-4.8,3.1-8,3.9c-3.2,0.8-6.8,1.1-10.8,0.8c-4-0.3-8.3-1.2-12.8-2.6c-4.5-1.4-9.3-3.3-14.1-5.8 c-1.1-0.6-2.2-1.2-3.3-1.8 M19.5,50.1c-3.8,0.6-6.9,1.9-8.9,3.7c-2,1.8-3.1,4.1-3.2,6.9c-0.1,2.8,0.8,5.9,2.6,9.2c1.8,3.3,4.5,6.9,8,10.5 c3.5,3.7,7.8,7.3,12.6,10.7c4.8,3.4,10,6.4,15.2,8.9c5.2,2.5,10.3,4.3,15,5.3c2.3,0.5,4.5,0.8,6.5,0.9c2,0.1,3.8-0.1,5.3-0.5 c1.5-0.4,2.8-1,3.8-1.9c1-0.9,1.7-2.1,2.1-3.6c0.4-1.5,0.5-3.3,0.3-5.4c-0.2-2.1-0.8-4.5-1.8-7.1c-2-5.2-5.7-11.1-10.6-16.6 c-4.9-5.5-10.9-10.7-17.4-15C44,51.5,37.1,48.2,30.4,46C26.6,44.9,22.9,44.2,19.5,44c-0.7,0-1.4,0-2,0.1c-0.7,0-1.3,0.1-1.9,0.2 c-0.6,0.1-1.2,0.2-1.7,0.3c-0.6,0.1-1.1,0.3-1.6,0.4C14.9,48.1,17.1,49.8,19.5,50.1z"/>
  </symbol>
</svg>
